<mxfile host="app.diagrams.net" modified="2024-03-26T17:15:18.651Z" agent="Mozilla/5.0 (Windows NT 10.0; Win64; x64) AppleWebKit/537.36 (KHTML, like Gecko) Chrome/123.0.0.0 Safari/537.36" etag="73SUyuR-R1wfPSLT-DFD" version="24.1.0" type="google">
  <diagram id="prtHgNgQTEPvFCAcTncT" name="Page-1">
    <mxGraphModel grid="1" page="1" gridSize="10" guides="1" tooltips="1" connect="1" arrows="1" fold="1" pageScale="1" pageWidth="827" pageHeight="1169" math="0" shadow="0">
      <root>
        <mxCell id="0" />
        <mxCell id="1" parent="0" />
        <mxCell id="dNxyNK7c78bLwvsdeMH5-19" value="&lt;font style=&quot;vertical-align: inherit;&quot;&gt;&lt;font style=&quot;vertical-align: inherit;&quot;&gt;POOL&lt;/font&gt;&lt;/font&gt;" style="swimlane;html=1;childLayout=stackLayout;resizeParent=1;resizeParentMax=0;horizontal=0;startSize=20;horizontalStack=0;" vertex="1" parent="1">
          <mxGeometry x="120" y="180" width="670" height="230" as="geometry" />
        </mxCell>
        <mxCell id="dNxyNK7c78bLwvsdeMH5-35" style="edgeStyle=orthogonalEdgeStyle;rounded=0;orthogonalLoop=1;jettySize=auto;html=1;endArrow=classic;endFill=1;" edge="1" parent="dNxyNK7c78bLwvsdeMH5-19">
          <mxGeometry relative="1" as="geometry">
            <mxPoint x="300" y="260" as="sourcePoint" />
            <mxPoint x="300" y="260" as="targetPoint" />
          </mxGeometry>
        </mxCell>
        <mxCell id="PkCTNhIn9gS8HxjsYS_O-16" value="&lt;font style=&quot;vertical-align: inherit;&quot;&gt;&lt;font style=&quot;vertical-align: inherit;&quot;&gt;&lt;b&gt;POOL&lt;/b&gt;&lt;/font&gt;&lt;/font&gt;" style="rounded=0;whiteSpace=wrap;html=1;rotation=-90;" vertex="1" parent="1">
          <mxGeometry x="-47.5" y="582.5" width="355" height="20" as="geometry" />
        </mxCell>
        <mxCell id="dNxyNK7c78bLwvsdeMH5-20" value="&amp;nbsp; &amp;nbsp; &amp;nbsp; &amp;nbsp; &amp;nbsp; &amp;nbsp; &amp;nbsp; &amp;nbsp; &amp;nbsp; &amp;nbsp; &amp;nbsp; &amp;nbsp; &amp;nbsp; &amp;nbsp; &amp;nbsp; &amp;nbsp; &amp;nbsp; &amp;nbsp; &amp;nbsp; &amp;nbsp; &amp;nbsp; &amp;nbsp; &amp;nbsp; &amp;nbsp; &amp;nbsp; &amp;nbsp; &amp;nbsp; &amp;nbsp; &amp;nbsp; &amp;nbsp; &amp;nbsp; &amp;nbsp; &amp;nbsp; &amp;nbsp; &amp;nbsp; &amp;nbsp; &amp;nbsp; &amp;nbsp; &amp;nbsp; &amp;nbsp; &amp;nbsp; &amp;nbsp; &amp;nbsp; &amp;nbsp; &amp;nbsp; &amp;nbsp; &amp;nbsp; &amp;nbsp; &amp;nbsp; &amp;nbsp; &amp;nbsp; &amp;nbsp; &amp;nbsp;CLIENTE" style="swimlane;html=1;startSize=20;horizontal=0;" vertex="1" parent="1">
          <mxGeometry x="140" y="180" width="650" height="590" as="geometry" />
        </mxCell>
        <mxCell id="dNxyNK7c78bLwvsdeMH5-25" value="" style="edgeStyle=orthogonalEdgeStyle;rounded=0;orthogonalLoop=1;jettySize=auto;html=1;" edge="1" parent="dNxyNK7c78bLwvsdeMH5-20" source="dNxyNK7c78bLwvsdeMH5-23" target="dNxyNK7c78bLwvsdeMH5-24">
          <mxGeometry relative="1" as="geometry" />
        </mxCell>
        <mxCell id="dNxyNK7c78bLwvsdeMH5-23" value="" style="ellipse;whiteSpace=wrap;html=1;" vertex="1" parent="dNxyNK7c78bLwvsdeMH5-20">
          <mxGeometry x="30" y="65" width="50" height="50" as="geometry" />
        </mxCell>
        <mxCell id="PkCTNhIn9gS8HxjsYS_O-60" style="edgeStyle=orthogonalEdgeStyle;rounded=0;orthogonalLoop=1;jettySize=auto;html=1;exitX=1;exitY=0.5;exitDx=0;exitDy=0;entryX=0;entryY=0.5;entryDx=0;entryDy=0;" edge="1" parent="dNxyNK7c78bLwvsdeMH5-20" source="dNxyNK7c78bLwvsdeMH5-24" target="PkCTNhIn9gS8HxjsYS_O-58">
          <mxGeometry relative="1" as="geometry" />
        </mxCell>
        <mxCell id="dNxyNK7c78bLwvsdeMH5-24" value="&lt;font style=&quot;vertical-align: inherit;&quot;&gt;&lt;font style=&quot;vertical-align: inherit;&quot;&gt;PRECISA REALIZAR SUAS ATIVIDADES DIARIAS&amp;nbsp;&lt;/font&gt;&lt;/font&gt;" style="rounded=0;whiteSpace=wrap;html=1;fontFamily=Helvetica;fontSize=12;fontColor=#000000;align=center;" vertex="1" parent="dNxyNK7c78bLwvsdeMH5-20">
          <mxGeometry x="100" y="60" width="100" height="60" as="geometry" />
        </mxCell>
        <mxCell id="PkCTNhIn9gS8HxjsYS_O-83" style="edgeStyle=orthogonalEdgeStyle;rounded=0;orthogonalLoop=1;jettySize=auto;html=1;exitX=0.5;exitY=1;exitDx=0;exitDy=0;entryX=0.5;entryY=0;entryDx=0;entryDy=0;" edge="1" parent="dNxyNK7c78bLwvsdeMH5-20" source="PkCTNhIn9gS8HxjsYS_O-58" target="PkCTNhIn9gS8HxjsYS_O-21">
          <mxGeometry relative="1" as="geometry" />
        </mxCell>
        <mxCell id="PkCTNhIn9gS8HxjsYS_O-58" value="NECESSIDADE DE SERVIÇOS&amp;nbsp;" style="rounded=0;whiteSpace=wrap;html=1;" vertex="1" parent="dNxyNK7c78bLwvsdeMH5-20">
          <mxGeometry x="230" y="60" width="120" height="60" as="geometry" />
        </mxCell>
        <mxCell id="PkCTNhIn9gS8HxjsYS_O-63" value="" style="html=1;verticalLabelPosition=bottom;align=center;labelBackgroundColor=#ffffff;verticalAlign=top;strokeWidth=2;shadow=0;dashed=0;shape=mxgraph.ios7.icons.mail;" vertex="1" parent="dNxyNK7c78bLwvsdeMH5-20">
          <mxGeometry x="410" y="170" width="30" height="16.5" as="geometry" />
        </mxCell>
        <mxCell id="PkCTNhIn9gS8HxjsYS_O-82" style="edgeStyle=orthogonalEdgeStyle;rounded=0;orthogonalLoop=1;jettySize=auto;html=1;exitX=0.875;exitY=0.5;exitDx=0;exitDy=0;exitPerimeter=0;" edge="1" parent="dNxyNK7c78bLwvsdeMH5-20" source="PkCTNhIn9gS8HxjsYS_O-65" target="PkCTNhIn9gS8HxjsYS_O-74">
          <mxGeometry relative="1" as="geometry" />
        </mxCell>
        <mxCell id="PkCTNhIn9gS8HxjsYS_O-65" value="CLIENTE&amp;nbsp;&lt;div&gt;NOTIFICADO&lt;/div&gt;" style="ellipse;shape=cloud;whiteSpace=wrap;html=1;" vertex="1" parent="dNxyNK7c78bLwvsdeMH5-20">
          <mxGeometry x="370" y="65" width="100" height="70" as="geometry" />
        </mxCell>
        <mxCell id="PkCTNhIn9gS8HxjsYS_O-69" style="edgeStyle=orthogonalEdgeStyle;rounded=0;orthogonalLoop=1;jettySize=auto;html=1;entryX=0.55;entryY=0.95;entryDx=0;entryDy=0;entryPerimeter=0;" edge="1" parent="dNxyNK7c78bLwvsdeMH5-20" source="PkCTNhIn9gS8HxjsYS_O-63" target="PkCTNhIn9gS8HxjsYS_O-65">
          <mxGeometry relative="1" as="geometry" />
        </mxCell>
        <mxCell id="dNxyNK7c78bLwvsdeMH5-21" value="&lt;font style=&quot;vertical-align: inherit;&quot;&gt;&lt;font style=&quot;vertical-align: inherit;&quot;&gt;&lt;font style=&quot;vertical-align: inherit;&quot;&gt;&lt;font style=&quot;vertical-align: inherit;&quot;&gt;&lt;font style=&quot;vertical-align: inherit;&quot;&gt;&lt;font style=&quot;vertical-align: inherit;&quot;&gt;SOFTWARE&lt;/font&gt;&lt;/font&gt;&lt;/font&gt;&lt;/font&gt;&lt;/font&gt;&lt;/font&gt;" style="swimlane;html=1;startSize=20;horizontal=0;" vertex="1" parent="dNxyNK7c78bLwvsdeMH5-20">
          <mxGeometry y="230" width="650" height="360" as="geometry" />
        </mxCell>
        <mxCell id="PkCTNhIn9gS8HxjsYS_O-71" style="edgeStyle=orthogonalEdgeStyle;rounded=0;orthogonalLoop=1;jettySize=auto;html=1;exitX=1;exitY=0.5;exitDx=0;exitDy=0;entryX=0;entryY=0.75;entryDx=0;entryDy=0;" edge="1" parent="dNxyNK7c78bLwvsdeMH5-21" source="PkCTNhIn9gS8HxjsYS_O-20" target="PkCTNhIn9gS8HxjsYS_O-28">
          <mxGeometry relative="1" as="geometry" />
        </mxCell>
        <mxCell id="PkCTNhIn9gS8HxjsYS_O-20" value="ANALISE E CONTRIBUIÇÃO AUTOMATICA&amp;nbsp;" style="rounded=0;whiteSpace=wrap;html=1;" vertex="1" parent="dNxyNK7c78bLwvsdeMH5-21">
          <mxGeometry x="300" y="40" width="120" height="60" as="geometry" />
        </mxCell>
        <mxCell id="PkCTNhIn9gS8HxjsYS_O-77" style="edgeStyle=orthogonalEdgeStyle;rounded=0;orthogonalLoop=1;jettySize=auto;html=1;" edge="1" parent="dNxyNK7c78bLwvsdeMH5-21" source="PkCTNhIn9gS8HxjsYS_O-28" target="PkCTNhIn9gS8HxjsYS_O-30">
          <mxGeometry relative="1" as="geometry" />
        </mxCell>
        <mxCell id="PkCTNhIn9gS8HxjsYS_O-28" value="COMUNICAÇÃO E CONFIRMAÇÃO&amp;nbsp;" style="rounded=0;whiteSpace=wrap;html=1;dashed=1;" vertex="1" parent="dNxyNK7c78bLwvsdeMH5-21">
          <mxGeometry x="450" y="40" width="120" height="60" as="geometry" />
        </mxCell>
        <mxCell id="PkCTNhIn9gS8HxjsYS_O-30" value="DESLOCAMENTO DO CUIDADOR/MOTORISTA" style="rounded=0;whiteSpace=wrap;html=1;" vertex="1" parent="dNxyNK7c78bLwvsdeMH5-21">
          <mxGeometry x="430" y="145" width="160" height="60" as="geometry" />
        </mxCell>
        <mxCell id="PkCTNhIn9gS8HxjsYS_O-34" value="PRESTAÇÃO DE SERVIÇO" style="rounded=0;whiteSpace=wrap;html=1;" vertex="1" parent="dNxyNK7c78bLwvsdeMH5-21">
          <mxGeometry x="230" y="145" width="120" height="60" as="geometry" />
        </mxCell>
        <mxCell id="PkCTNhIn9gS8HxjsYS_O-33" style="edgeStyle=orthogonalEdgeStyle;rounded=0;orthogonalLoop=1;jettySize=auto;html=1;" edge="1" parent="dNxyNK7c78bLwvsdeMH5-21" source="PkCTNhIn9gS8HxjsYS_O-30" target="PkCTNhIn9gS8HxjsYS_O-34">
          <mxGeometry relative="1" as="geometry">
            <mxPoint x="470" y="130" as="targetPoint" />
          </mxGeometry>
        </mxCell>
        <mxCell id="PkCTNhIn9gS8HxjsYS_O-81" style="edgeStyle=orthogonalEdgeStyle;rounded=0;orthogonalLoop=1;jettySize=auto;html=1;" edge="1" parent="dNxyNK7c78bLwvsdeMH5-21" source="PkCTNhIn9gS8HxjsYS_O-36" target="PkCTNhIn9gS8HxjsYS_O-39">
          <mxGeometry relative="1" as="geometry" />
        </mxCell>
        <mxCell id="PkCTNhIn9gS8HxjsYS_O-36" value="FEEDBACK E AVALIAÇÃO" style="rounded=0;whiteSpace=wrap;html=1;" vertex="1" parent="dNxyNK7c78bLwvsdeMH5-21">
          <mxGeometry x="230" y="270" width="120" height="60" as="geometry" />
        </mxCell>
        <mxCell id="PkCTNhIn9gS8HxjsYS_O-35" style="edgeStyle=orthogonalEdgeStyle;rounded=0;orthogonalLoop=1;jettySize=auto;html=1;" edge="1" parent="dNxyNK7c78bLwvsdeMH5-21" source="PkCTNhIn9gS8HxjsYS_O-34" target="PkCTNhIn9gS8HxjsYS_O-36">
          <mxGeometry relative="1" as="geometry">
            <mxPoint x="360" y="160" as="targetPoint" />
          </mxGeometry>
        </mxCell>
        <mxCell id="PkCTNhIn9gS8HxjsYS_O-86" style="edgeStyle=orthogonalEdgeStyle;rounded=0;orthogonalLoop=1;jettySize=auto;html=1;exitX=0.5;exitY=0;exitDx=0;exitDy=0;" edge="1" parent="dNxyNK7c78bLwvsdeMH5-21" source="PkCTNhIn9gS8HxjsYS_O-39" target="PkCTNhIn9gS8HxjsYS_O-84">
          <mxGeometry relative="1" as="geometry" />
        </mxCell>
        <mxCell id="PkCTNhIn9gS8HxjsYS_O-39" value="MELHORIA CONTÍNUA" style="rounded=0;whiteSpace=wrap;html=1;" vertex="1" parent="dNxyNK7c78bLwvsdeMH5-21">
          <mxGeometry x="70" y="270" width="120" height="60" as="geometry" />
        </mxCell>
        <mxCell id="PkCTNhIn9gS8HxjsYS_O-56" style="edgeStyle=orthogonalEdgeStyle;rounded=0;orthogonalLoop=1;jettySize=auto;html=1;exitX=1;exitY=0.5;exitDx=0;exitDy=0;entryX=0;entryY=0.5;entryDx=0;entryDy=0;" edge="1" parent="dNxyNK7c78bLwvsdeMH5-21" source="PkCTNhIn9gS8HxjsYS_O-21" target="PkCTNhIn9gS8HxjsYS_O-22">
          <mxGeometry relative="1" as="geometry" />
        </mxCell>
        <mxCell id="PkCTNhIn9gS8HxjsYS_O-21" value="ACESSO AO APLICATIVO CARE ME&amp;nbsp;" style="rounded=0;whiteSpace=wrap;html=1;" vertex="1" parent="dNxyNK7c78bLwvsdeMH5-21">
          <mxGeometry x="30" y="40" width="110" height="60" as="geometry" />
        </mxCell>
        <mxCell id="PkCTNhIn9gS8HxjsYS_O-70" style="edgeStyle=orthogonalEdgeStyle;rounded=0;orthogonalLoop=1;jettySize=auto;html=1;exitX=1;exitY=0.5;exitDx=0;exitDy=0;entryX=0;entryY=0.5;entryDx=0;entryDy=0;" edge="1" parent="dNxyNK7c78bLwvsdeMH5-21" source="PkCTNhIn9gS8HxjsYS_O-22" target="PkCTNhIn9gS8HxjsYS_O-20">
          <mxGeometry relative="1" as="geometry" />
        </mxCell>
        <mxCell id="PkCTNhIn9gS8HxjsYS_O-22" value="SOLICITAÇÃO DE SERVIÇOS" style="rounded=0;whiteSpace=wrap;html=1;" vertex="1" parent="dNxyNK7c78bLwvsdeMH5-21">
          <mxGeometry x="160" y="40" width="120" height="60" as="geometry" />
        </mxCell>
        <mxCell id="PkCTNhIn9gS8HxjsYS_O-84" value="" style="ellipse;whiteSpace=wrap;html=1;aspect=fixed;strokeWidth=5;" vertex="1" parent="dNxyNK7c78bLwvsdeMH5-21">
          <mxGeometry x="40" y="160" width="50" height="50" as="geometry" />
        </mxCell>
        <mxCell id="PkCTNhIn9gS8HxjsYS_O-64" style="edgeStyle=orthogonalEdgeStyle;rounded=0;orthogonalLoop=1;jettySize=auto;html=1;exitX=0.5;exitY=0;exitDx=0;exitDy=0;dashed=1;" edge="1" parent="dNxyNK7c78bLwvsdeMH5-20" source="PkCTNhIn9gS8HxjsYS_O-28" target="PkCTNhIn9gS8HxjsYS_O-63">
          <mxGeometry relative="1" as="geometry" />
        </mxCell>
        <mxCell id="PkCTNhIn9gS8HxjsYS_O-80" style="edgeStyle=orthogonalEdgeStyle;rounded=0;orthogonalLoop=1;jettySize=auto;html=1;exitX=1;exitY=1;exitDx=0;exitDy=0;entryX=1;entryY=0.25;entryDx=0;entryDy=0;" edge="1" parent="dNxyNK7c78bLwvsdeMH5-20" source="PkCTNhIn9gS8HxjsYS_O-74" target="PkCTNhIn9gS8HxjsYS_O-36">
          <mxGeometry relative="1" as="geometry" />
        </mxCell>
        <mxCell id="PkCTNhIn9gS8HxjsYS_O-74" value="CLIENTE REALIZOU SUAS ATIVIDADES" style="rounded=0;whiteSpace=wrap;html=1;" vertex="1" parent="dNxyNK7c78bLwvsdeMH5-20">
          <mxGeometry x="510" y="70" width="120" height="60" as="geometry" />
        </mxCell>
      </root>
    </mxGraphModel>
  </diagram>
</mxfile>
